<?xml version="1.0" encoding="utf-8"?>
<!-- Generator: Adobe Illustrator 23.0.2, SVG Export Plug-In . SVG Version: 6.00 Build 0)  -->
<svg version="1.1" id="Layer_1" xmlns="http://www.w3.org/2000/svg" xmlns:xlink="http://www.w3.org/1999/xlink" x="0px" y="0px"
	 viewBox="0 0 50 50" style="enable-background:new 0 0 50 50;" xml:space="preserve">
<title>27</title>
<circle cx="34.5" cy="40.2" r="2.3"/>
<circle cx="25" cy="40.2" r="2.3"/>
<path d="M44.7,12.2c-0.6-0.2-1.2,0.1-1.5,0.6l-6.1,15.1H21.9L14.6,8.3c-0.2-0.4-0.6-0.7-1.1-0.7H5.8c-0.6,0-1.1,0.5-1.1,1.1
	c0,0.6,0.5,1.1,1.1,1.1h7l6.9,18.4l-1.4,2.6c-0.9,1.6-0.3,3.6,1.3,4.5c0.5,0.3,1,0.4,1.6,0.4h19c0.6,0,1.1-0.5,1.1-1.1
	s-0.5-1.1-1.1-1.1h-19c-0.6,0-1-0.5-1-1c0-0.2,0-0.3,0.1-0.5l0.9-1.7c0,0,16.8,0,16.8,0c0.5,0,0.9-0.3,1.1-0.7l6.3-15.8
	C45.5,13.1,45.2,12.4,44.7,12.2z"/>
<path d="M38.5,16.9c0-0.6-0.5-1.1-1.1-1.1c0,0,0,0,0,0H22c-0.6,0-1.1,0.5-1.1,1.1S21.4,18,22,18h15.4C38,18,38.5,17.5,38.5,16.9
	C38.5,16.9,38.5,16.9,38.5,16.9z"/>
<path d="M24.2,21.6c-0.6,0-1.1,0.5-1.1,1.1s0.5,1.1,1.1,1.1H35c0.6,0,1.1-0.5,1.1-1.1s-0.5-1.1-1.1-1.1H24.2z"/>
</svg>
