<?xml version="1.0" encoding="utf-8"?>
<!-- Generator: Adobe Illustrator 23.0.2, SVG Export Plug-In . SVG Version: 6.00 Build 0)  -->
<svg version="1.1" id="Layer_1" xmlns="http://www.w3.org/2000/svg" xmlns:xlink="http://www.w3.org/1999/xlink" x="0px" y="0px"
	 viewBox="0 0 50 50" style="enable-background:new 0 0 50 50;" xml:space="preserve">
<g>
	<path d="M39.8,43.7H10.2c-0.7,0-1.3-0.6-1.3-1.3c0-7.2,5.7-15.6,13.1-15.6h6c7.4,0,13.1,8.4,13.1,15.6
		C41.1,43.2,40.5,43.7,39.8,43.7z M11.5,41.2h26.9c-0.6-5.6-5.2-11.8-10.5-11.8h-6C16.7,29.4,12.1,35.6,11.5,41.2z"/>
</g>
<g>
	<path d="M25,24.8c-5.1,0-9.3-4.2-9.3-9.3s4.1-9.3,9.3-9.3c5.1,0,9.2,4.1,9.2,9.3S30.1,24.8,25,24.8z M25,8.8c-3.7,0-6.7,3-6.7,6.7
		c0,3.7,3,6.7,6.7,6.7c3.7,0,6.7-3,6.7-6.7C31.7,11.8,28.7,8.8,25,8.8z"/>
</g>
</svg>
